<svg width="171" height="171" viewBox="0 0 171 171" fill="none" xmlns="http://www.w3.org/2000/svg">
<path d="M97.0589 0V41.1547C97.0589 47.7387 91.7107 53.0869 85.1267 53.0869C78.5427 53.0869 73.1944 47.7387 73.1944 41.1547V0H97.0589Z" fill="#1A1A1A"/>
<path d="M144.913 23.2543L120.77 56.5829C116.907 61.9148 109.438 63.1085 104.106 59.2459C98.7744 55.3834 97.5808 47.9146 101.443 42.5826L125.587 9.25404L144.913 23.2543Z" fill="#1A1A1A"/>
<path d="M170.051 70.1427L130.948 82.9763C124.693 85.0294 117.943 81.6156 115.89 75.3599C113.837 69.1043 117.251 62.3549 123.506 60.3018L162.609 47.4682L170.051 70.1427Z" fill="#1A1A1A"/>
<path d="M162.879 122.861L123.684 110.315C117.413 108.307 113.95 101.583 115.957 95.3126C117.964 89.042 124.688 85.5789 130.959 87.5861L170.155 100.133L162.879 122.861Z" fill="#1A1A1A"/>
<path d="M126.161 161.371L101.774 128.22C97.8723 122.916 99.0112 115.439 104.315 111.537C109.618 107.636 117.096 108.775 120.997 114.078L145.384 147.229L126.161 161.371Z" fill="#1A1A1A"/>
<path d="M73.8344 170.998L73.5327 129.845C73.4845 123.261 78.7934 117.874 85.3772 117.826C91.961 117.777 97.3483 123.086 97.3966 129.67L97.6983 170.824L73.8344 170.998Z" fill="#1A1A1A"/>
<path d="M25.7911 148.107L49.6839 114.599C53.5063 109.238 60.9659 107.988 66.3267 111.811C71.6875 115.633 72.9371 123.093 69.1147 128.453L45.2219 161.962L25.7911 148.107Z" fill="#1A1A1A"/>
<path d="M0.324922 101.392L39.3323 88.2717C45.5728 86.1728 52.347 89.537 54.4459 95.7775C56.5449 102.018 53.1806 108.792 46.9402 110.891L7.93278 124.011L0.324922 101.392Z" fill="#1A1A1A"/>
<path d="M7.10863 48.622L46.3951 60.881C52.6802 62.8422 56.1926 69.5408 54.2314 75.8259C52.2702 82.111 45.5716 85.6233 39.2865 83.6621L0 71.4032L7.10863 48.622Z" fill="#1A1A1A"/>
<path d="M43.5491 9.85027L68.1788 42.8213C72.119 48.0961 71.035 55.5816 65.7603 59.5219C60.4855 63.4621 53 62.3781 49.0597 57.1034L24.4301 24.1323L43.5491 9.85027Z" fill="#1A1A1A"/>
</svg>
